<?xml version="1.0" standalone="no"?>
<!DOCTYPE svg PUBLIC "-//W3C//DTD SVG 20010904//EN"
 "http://www.w3.org/TR/2001/REC-SVG-20010904/DTD/svg10.dtd">
<svg version="1.0" xmlns="http://www.w3.org/2000/svg"
 width="300.000000pt" height="300.000000pt" viewBox="0 0 300.000000 300.000000"
 preserveAspectRatio="xMidYMid meet">
<metadata>
Created by potrace 1.10, written by Peter Selinger 2001-2011
</metadata>
<g transform="translate(0.000000,300.000000) scale(0.100000,-0.100000)"
fill="#000000" stroke="none">
<path d="M1270 2890 c-287 -52 -541 -181 -733 -374 -235 -235 -362 -503 -397
-844 -27 -252 39 -578 156 -778 13 -22 24 -47 24 -54 0 -7 -19 -30 -41 -51
-50 -47 -48 -65 16 -154 145 -202 332 -360 563 -475 232 -115 544 -171 788
-141 349 43 604 158 859 386 109 97 255 285 255 328 0 12 -18 40 -40 62 l-40
41 39 74 c50 97 94 221 123 351 31 138 33 417 4 549 -70 325 -242 607 -488
804 -74 58 -234 153 -318 187 -89 36 -236 77 -323 91 -131 20 -331 19 -447 -2z
m505 -44 c265 -60 493 -183 670 -361 196 -197 312 -416 367 -690 28 -141 28
-372 -1 -508 -35 -167 -102 -343 -162 -429 -11 -14 -19 -30 -19 -35 0 -4 25
-25 55 -46 l54 -38 -36 -52 c-242 -344 -562 -548 -969 -617 -222 -38 -478 -18
-699 55 -93 30 -309 144 -390 204 -107 82 -223 197 -306 308 -38 50 -69 95
-69 100 1 4 25 25 55 46 l55 38 -30 48 c-111 180 -180 439 -180 675 0 654 447
1188 1097 1310 103 20 408 15 508 -8z"/>
<path d="M1305 2809 c-128 -19 -368 -97 -399 -130 -8 -9 -6 -9 9 -1 35 17 197
70 280 90 112 28 150 33 315 41 l145 8 -145 0 c-80 0 -172 -3 -205 -8z"/>
<path d="M1775 2762 c-40 -23 -75 -54 -75 -66 0 -5 10 0 23 11 12 12 33 23 47
25 14 2 24 9 22 16 -2 9 4 11 18 7 11 -4 20 -2 20 4 0 6 4 11 10 11 5 0 6 -7
3 -17 -4 -11 -3 -14 5 -9 7 4 12 2 12 -5 0 -7 13 -10 35 -7 19 2 35 0 35 -5 0
-4 5 -5 10 -2 6 3 10 1 10 -5 0 -6 7 -10 16 -8 10 2 19 -3 22 -11 2 -8 0 -11
-5 -8 -5 3 -10 -3 -10 -14 -2 -18 0 -18 17 3 l20 23 6 -22 c3 -13 10 -20 15
-17 5 3 7 9 4 14 -3 5 9 4 26 -2 30 -10 31 -12 14 -24 -16 -12 -13 -13 21 -9
26 3 34 2 25 -4 -8 -5 -16 -17 -17 -26 -2 -13 0 -14 12 -4 13 10 18 6 16 -13
-1 -3 5 -9 14 -12 9 -3 12 -2 9 5 -4 6 3 7 21 3 19 -5 25 -4 20 5 -4 6 -3 11
2 11 17 0 22 -29 5 -32 -13 -2 -12 -7 6 -28 15 -16 24 -21 27 -13 3 7 13 9 22
6 14 -4 14 -3 2 5 -8 6 -17 9 -21 6 -4 -2 -10 0 -14 6 -3 5 2 10 13 10 10 0
34 -19 53 -42 l34 -43 -33 24 c-27 19 -38 21 -55 13 -12 -6 -16 -11 -9 -11 7
-1 11 -5 8 -10 -3 -5 1 -12 9 -15 13 -4 14 -2 5 14 -10 18 -9 19 14 9 52 -24
198 -241 181 -269 -3 -6 4 -10 16 -10 21 0 21 1 6 18 -9 10 -20 34 -23 53 -8
38 -18 61 -37 81 -21 21 -57 88 -48 88 13 0 32 -26 24 -33 -3 -4 1 -7 11 -7 9
0 14 -5 11 -10 -3 -6 5 -14 19 -20 17 -6 26 -17 26 -32 0 -21 20 -64 20 -44 0
5 9 1 20 -9 11 -10 20 -26 20 -36 0 -10 8 -20 18 -23 10 -3 25 -18 34 -33 14
-25 15 -31 2 -56 -8 -15 -11 -27 -5 -27 5 0 11 9 14 20 7 28 27 25 27 -5 0
-14 -5 -25 -10 -25 -6 0 -21 -9 -32 -20 -17 -15 -24 -17 -30 -8 -5 8 -7 3 -6
-13 2 -23 5 -25 20 -15 10 6 18 14 18 17 0 4 12 14 26 24 22 14 28 15 35 4 15
-23 10 -39 -13 -49 -16 -6 -18 -9 -7 -9 16 -1 81 -54 79 -65 0 -4 0 -9 1 -13
1 -5 0 -17 0 -29 -1 -11 5 -27 13 -34 24 -19 19 -36 -21 -70 -21 -18 -28 -27
-16 -21 12 6 25 16 28 21 10 16 35 12 29 -5 -4 -8 -1 -15 5 -15 6 0 11 -12 11
-26 0 -14 5 -34 10 -44 7 -13 7 -21 0 -25 -6 -4 -7 -12 -3 -18 4 -7 8 -31 9
-53 l1 -42 -33 14 c-47 20 -42 3 5 -19 l39 -18 0 -62 c0 -56 -1 -60 -13 -42
-36 52 -43 58 -58 52 -14 -5 -10 -13 21 -43 44 -43 52 -97 17 -127 -15 -13
-16 -16 -3 -11 10 3 20 -1 26 -13 13 -24 1 -51 -21 -47 -15 2 -17 -2 -12 -27
4 -16 2 -29 -3 -29 -5 0 -9 -7 -9 -15 0 -8 4 -12 9 -9 21 13 5 -30 -55 -154
-24 -51 -41 -43 -42 20 -1 23 -7 44 -13 46 -7 2 -9 9 -6 15 5 8 2 8 -7 -1 -7
-6 -42 -13 -79 -13 l-65 -2 77 -10 c62 -7 79 -13 83 -28 9 -28 -4 -44 -19 -23
-9 12 -15 14 -20 6 -12 -19 -25 -14 -19 8 4 14 0 20 -11 20 -10 0 -15 -4 -12
-9 3 -5 -18 -3 -46 4 -29 8 -66 16 -83 19 l-30 5 38 -34 39 -34 -29 -4 c-15
-2 1 -5 37 -6 94 -2 170 -12 164 -22 -3 -5 -27 -9 -54 -9 -61 0 -378 -28 -403
-36 -10 -3 -51 -6 -90 -7 -40 0 -59 -3 -43 -5 22 -3 26 -6 15 -13 -22 -14 33
-11 132 6 91 16 139 16 139 2 0 -5 6 -4 14 2 8 7 59 16 113 22 54 5 111 11
128 14 16 2 33 -1 37 -8 5 -8 8 -5 8 7 0 11 3 16 7 12 11 -10 15 -59 5 -52 -5
3 -18 -12 -28 -34 -11 -23 -24 -38 -31 -35 -14 5 -16 -5 -13 -42 1 -20 -2 -22
-28 -17 -26 5 -32 2 -46 -24 -20 -39 -20 -40 7 -45 19 -4 18 -4 -5 -6 -25 -1
-28 -5 -28 -38 l-1 -38 -19 24 c-18 21 -26 16 -21 -13 1 -5 -5 -16 -14 -26 -8
-9 -12 -19 -9 -23 7 -6 -33 -12 -211 -27 -71 -6 -152 -13 -179 -16 -28 -3 -68
-5 -90 -5 -53 0 -96 -8 -96 -19 0 -11 28 -10 283 13 176 16 230 18 239 9 9 -9
6 -12 -13 -12 -14 0 -36 -11 -49 -25 -25 -27 -78 -40 -205 -50 -44 -3 -83 -10
-88 -14 -4 -4 28 -3 70 1 43 5 101 7 128 6 l50 -3 -68 -39 c-72 -41 -255 -121
-297 -130 -14 -3 -55 -12 -92 -21 -36 -8 -79 -16 -95 -16 -15 0 -48 -2 -73 -4
-84 -9 -130 -11 -134 -8 -2 2 -32 6 -67 9 -119 8 -150 13 -167 26 -11 9 -14
10 -8 1 9 -16 -6 -17 -20 -3 -6 6 -24 12 -41 13 -17 1 -29 4 -27 7 3 2 -25 12
-62 22 -73 20 -179 66 -172 74 3 2 77 0 164 -7 88 -6 186 -8 219 -5 33 3 128
6 210 7 121 1 160 5 200 20 28 10 59 20 70 20 13 1 9 4 -10 8 -18 4 -38 2 -50
-5 -33 -20 -106 -25 -405 -29 -214 -3 -305 0 -364 10 -79 15 -121 37 -112 62
4 9 -6 13 -37 13 -23 0 -49 5 -57 11 -11 8 -8 9 15 5 28 -6 295 -18 375 -18
32 0 33 0 10 -8 -18 -6 -8 -7 32 -5 31 2 61 5 66 8 4 3 49 7 99 8 73 1 94 5
114 21 20 17 21 19 4 13 -64 -22 -625 -14 -755 11 l-35 7 20 -23 c57 -64 280
-190 420 -238 173 -59 430 -78 617 -47 368 61 671 260 873 573 203 316 255
725 138 1096 -98 312 -339 596 -630 741 -164 81 -268 107 -318 77z"/>
<path d="M1812 2708 c-16 -16 -15 -28 3 -28 9 0 18 7 22 16 4 11 8 12 13 4 5
-8 11 -6 20 5 11 13 8 15 -17 15 -16 0 -34 -5 -41 -12z"/>
<path d="M1734 2671 c-3 -3 -9 -6 -12 -6 -21 -2 -52 -18 -47 -24 4 -8 111 12
121 22 3 3 -9 7 -26 9 -16 3 -33 2 -36 -1z"/>
<path d="M1445 2636 c-38 -18 -110 -63 -159 -101 -87 -67 -89 -67 -105 -47 -9
11 -26 23 -37 26 -19 6 -23 2 -29 -31 -5 -28 -24 -57 -73 -108 -37 -39 -78
-86 -92 -104 -39 -51 -228 -199 -300 -234 -36 -17 -84 -44 -106 -59 -76 -51
-166 -91 -174 -78 -5 8 -9 7 -13 -5 -7 -15 -75 -50 -83 -42 -3 2 5 26 18 53
12 27 22 59 23 71 0 13 6 28 13 35 7 7 12 25 12 40 0 16 7 31 15 34 8 4 12 10
9 15 -3 5 4 23 16 39 12 17 20 38 18 48 -5 22 -89 -151 -116 -238 -46 -151
-57 -228 -56 -415 0 -161 3 -191 27 -287 60 -242 181 -463 335 -612 47 -45 55
-49 104 -51 29 -1 113 -6 186 -10 75 -4 132 -4 131 1 -2 22 -55 108 -69 112
-12 3 -12 2 -2 -6 7 -5 19 -27 27 -48 13 -38 13 -39 -11 -46 -14 -3 -41 -5
-62 -3 -20 3 -66 5 -102 6 -43 1 -79 8 -105 21 -40 20 -115 94 -115 113 0 6
-4 5 -8 -1 -4 -7 -17 5 -34 32 l-27 43 31 -3 30 -4 -28 24 -29 23 -12 -27 -11
-27 -7 27 c-4 15 -13 32 -21 39 -8 6 -12 14 -9 18 2 4 -7 20 -21 36 -13 15
-24 34 -24 41 0 7 -7 20 -16 28 -8 9 -12 16 -9 16 4 0 1 10 -7 22 -8 13 -18
37 -22 53 -4 17 -15 38 -23 47 -9 10 -13 26 -10 38 3 11 2 20 -2 20 -4 0 -12
19 -19 43 -12 39 -15 53 -28 117 -3 14 -6 91 -7 172 -2 106 1 150 11 159 6 7
12 18 12 23 0 6 -5 5 -12 -2 -19 -19 -25 -14 -20 20 3 18 13 41 24 52 10 12
14 22 8 24 -24 8 -10 47 22 61 18 8 58 25 88 39 30 13 66 29 80 35 40 18 243
138 263 155 12 10 17 11 17 3 0 -13 11 -5 90 60 92 76 300 295 300 315 0 16
10 17 43 5 20 -8 35 -1 93 40 150 106 171 118 215 130 42 11 52 10 113 -14 36
-15 73 -27 81 -27 28 0 15 17 -27 35 -24 10 -62 27 -85 37 -23 10 -46 18 -50
17 -4 0 -39 -15 -78 -33z"/>
<path d="M2053 2574 c10 -12 35 -24 57 -28 21 -3 47 -9 57 -12 10 -3 6 2 -9
11 -15 8 -41 17 -58 19 -16 2 -38 9 -47 17 -17 13 -17 12 0 -7z"/>
<path d="M645 2517 c-27 -23 -70 -64 -95 -92 -29 -33 -15 -22 40 29 47 44 92
86 100 93 36 32 0 8 -45 -30z"/>
<path d="M2000 2551 c19 -4 45 -13 58 -20 35 -19 114 -41 142 -40 16 1 10 4
-17 9 -22 5 -70 20 -105 34 -36 14 -75 25 -89 25 -17 -1 -15 -3 11 -8z"/>
<path d="M1896 2501 c-16 -17 -16 -19 5 -24 29 -8 43 1 30 17 -6 7 -8 16 -4
19 3 4 2 7 -4 7 -5 0 -18 -8 -27 -19z"/>
<path d="M2054 2458 c-2 -3 4 -8 13 -11 15 -3 14 -6 -6 -14 -24 -10 -24 -10
-3 -15 12 -4 20 -3 17 2 -3 4 2 13 9 20 12 9 20 8 41 -6 14 -9 28 -14 32 -11
3 4 -6 11 -21 16 -14 6 -26 14 -26 18 0 10 -50 11 -56 1z"/>
<path d="M1906 2424 c-3 -8 -9 -14 -13 -13 -22 4 -33 -3 -33 -18 1 -16 2 -16
13 -3 7 8 30 16 52 17 33 2 36 1 18 -7 -28 -12 -30 -20 -3 -13 32 9 32 20 1
36 -25 13 -30 13 -35 1z"/>
<path d="M1668 2389 c-10 -6 -18 -13 -18 -17 0 -10 48 -8 57 3 5 4 3 5 -4 1
-6 -3 -13 0 -15 8 -2 11 -8 12 -20 5z"/>
<path d="M1762 2388 c-17 -17 -15 -38 2 -32 17 7 28 31 17 38 -4 3 -13 0 -19
-6z"/>
<path d="M2072 2374 c3 -5 -11 -20 -33 -33 -45 -29 -44 -36 3 -26 29 7 30 9
13 16 -11 4 -15 8 -9 8 5 1 18 7 29 14 14 11 15 16 5 22 -7 5 -11 4 -8 -1z"/>
<path d="M1681 2340 c-8 -4 -11 -13 -7 -18 4 -6 -3 -16 -14 -22 -11 -6 -20
-16 -19 -23 0 -9 2 -9 6 1 2 6 9 10 13 7 5 -3 14 4 20 15 6 11 7 20 3 21 -4 0
1 4 11 8 11 4 15 10 10 14 -6 3 -16 2 -23 -3z"/>
<path d="M1863 2343 c9 -2 15 -9 12 -14 -7 -10 44 -33 53 -24 3 3 -1 5 -8 5
-7 0 -10 3 -7 7 8 7 -39 34 -57 32 -6 -1 -3 -3 7 -6z"/>
<path d="M1772 2307 c-9 -11 -15 -22 -14 -26 24 -44 24 -44 1 -63 -27 -22 -20
-21 34 7 42 21 49 38 12 29 -38 -10 -32 24 8 41 24 11 27 14 12 15 -20 1 -20
1 0 10 17 7 16 8 -8 7 -15 -1 -36 -10 -45 -20z"/>
<path d="M1694 2288 l-29 -31 32 21 c17 12 36 22 41 22 19 0 21 16 2 17 -9 1
-31 -12 -46 -29z"/>
<path d="M2066 2292 c3 -10 19 -26 35 -36 37 -22 36 -18 -5 22 -25 24 -33 28
-30 14z"/>
<path d="M2300 2300 c-9 -6 -3 -13 21 -24 24 -12 29 -13 16 -2 -13 10 -14 15
-6 18 9 3 9 6 -2 10 -9 3 -22 3 -29 -2z"/>
<path d="M2169 2273 c-24 -6 -31 -44 -13 -64 14 -16 12 -18 -23 -24 -22 -3
-52 -1 -68 5 -28 10 -29 9 -10 -5 14 -12 37 -15 80 -13 51 3 60 0 63 -16 2
-10 -1 -22 -8 -26 -6 -4 3 -7 19 -8 28 -1 42 11 24 20 -19 8 -81 95 -75 105 4
5 16 15 27 21 20 11 14 13 -16 5z"/>
<path d="M1879 2253 c-9 -2 -22 -16 -28 -31 l-13 -27 29 25 c15 14 30 26 32
28 9 5 -5 8 -20 5z"/>
<path d="M680 2242 c0 -26 178 -38 202 -14 10 10 6 10 -20 1 -27 -9 -37 -8
-58 6 -22 14 -30 15 -49 5 -17 -9 -28 -9 -43 -1 -25 13 -32 14 -32 3z"/>
<path d="M1692 2209 c-7 -11 -19 -18 -27 -15 -8 3 -17 -7 -24 -26 -14 -38 -6
-50 10 -15 6 13 22 30 35 36 13 6 24 17 24 26 0 20 -3 19 -18 -6z"/>
<path d="M1790 2190 c0 -5 -9 -10 -21 -10 -11 0 -18 -4 -15 -9 3 -4 -13 -14
-34 -21 -22 -7 -45 -18 -50 -25 -16 -20 46 -12 68 8 12 11 26 16 31 12 6 -3
11 1 11 9 0 9 4 16 9 16 5 0 11 7 15 15 3 8 1 15 -4 15 -6 0 -10 -4 -10 -10z"/>
<path d="M2440 2135 c-7 -8 -16 -12 -21 -9 -5 3 -6 -2 -3 -10 8 -21 17 -20 32
4 7 12 17 18 22 15 6 -3 10 -1 10 4 0 16 -26 13 -40 -4z"/>
<path d="M2334 2095 c-10 -8 -14 -15 -8 -15 5 0 15 5 21 11 9 9 21 8 46 -5 19
-9 44 -16 55 -16 12 0 24 -4 27 -10 3 -5 12 -10 18 -9 9 0 9 2 0 6 -7 2 -13
10 -13 17 0 8 -16 13 -42 14 -24 1 -44 7 -46 12 -5 15 -35 12 -58 -5z"/>
<path d="M2252 2063 c18 -3 28 -11 30 -26 4 -30 20 -28 24 4 2 24 -1 26 -39
26 -25 0 -31 -2 -15 -4z"/>
<path d="M2329 2025 c-1 -3 -2 -11 -3 -17 -1 -7 -9 -12 -19 -12 -9 1 -17 -2
-17 -7 0 -5 4 -9 10 -9 5 0 12 -11 16 -25 3 -14 10 -25 15 -25 5 0 4 11 -1 25
-5 14 -6 25 -1 25 5 0 11 11 13 25 3 14 1 25 -3 25 -5 0 -10 -2 -10 -5z"/>
<path d="M1615 1990 c-4 -6 -11 -8 -16 -4 -5 3 -8 0 -7 -8 2 -7 -6 -13 -16
-13 -11 0 -21 -6 -24 -13 -5 -16 3 -15 37 3 16 8 31 21 34 30 7 17 1 20 -8 5z"/>
<path d="M2486 1989 c3 -6 0 -15 -7 -20 -9 -6 -1 -6 20 -2 28 5 33 3 26 -8 -5
-8 -4 -11 1 -6 14 13 11 31 -6 39 -24 11 -42 9 -34 -3z"/>
<path d="M1621 1951 c-20 -18 -28 -32 -22 -36 18 -10 12 -33 -9 -40 -11 -3
-20 -14 -20 -22 0 -13 5 -11 26 8 14 13 23 31 21 41 -6 22 37 62 57 55 22 -9
20 0 -3 12 -14 8 -25 4 -50 -18z"/>
<path d="M1943 1927 c-11 -12 -23 -31 -27 -42 -9 -24 -8 -26 2 -22 4 1 6 5 5
10 -2 4 5 7 15 7 14 0 15 2 2 10 -13 8 -12 10 4 10 11 0 16 3 13 7 -4 3 -2 12
5 20 19 23 2 24 -19 0z"/>
<path d="M1680 1871 c0 -7 -4 -9 -10 -6 -6 3 -7 -1 -4 -10 4 -9 9 -14 11 -11
3 3 12 -1 20 -9 11 -12 18 -12 33 -3 11 7 17 14 15 17 -3 2 -11 -1 -18 -8 -11
-9 -17 -7 -28 5 -8 10 -12 19 -11 21 2 3 1 7 -2 11 -3 3 -6 0 -6 -7z"/>
<path d="M2322 1704 c-5 -10 -24 -16 -49 -17 -38 -2 -40 -3 -25 -18 10 -9 19
-13 22 -10 3 3 18 11 34 16 16 6 30 18 32 28 3 21 -2 22 -14 1z"/>
<path d="M2493 1708 c-13 -6 -23 -15 -23 -20 0 -5 9 -4 20 2 12 6 30 8 40 5
15 -5 18 -3 14 9 -7 18 -20 19 -51 4z"/>
<path d="M2066 1681 c-21 -10 -35 -21 -30 -23 12 -7 88 28 77 35 -4 3 -26 -3
-47 -12z"/>
<path d="M2193 1634 c3 -4 1 -16 -5 -28 -10 -19 -10 -20 5 -7 9 7 24 11 32 7
8 -3 15 -1 15 4 0 6 -7 10 -15 10 -8 0 -15 5 -15 10 0 6 -5 10 -12 10 -6 0 -8
-3 -5 -6z"/>
<path d="M2343 1619 c-7 -7 -13 -18 -13 -23 0 -6 4 -5 9 2 6 10 11 10 21 -3
11 -13 11 -18 1 -24 -9 -6 -5 -10 13 -13 30 -6 29 -7 16 27 -5 14 -14 24 -19
20 -5 -3 -11 2 -13 10 -2 13 -5 14 -15 4z"/>
<path d="M2530 1577 c0 -8 11 -19 25 -25 32 -15 35 -15 35 -2 0 6 -7 10 -15
10 -9 0 -18 7 -21 15 -8 19 -24 20 -24 2z"/>
<path d="M1537 1553 c12 -2 23 -10 25 -17 2 -9 8 -8 22 6 19 18 19 18 -25 17
-24 -1 -34 -4 -22 -6z"/>
<path d="M2188 1531 c-11 -4 -14 -11 -9 -19 8 -13 41 -6 41 8 0 14 -13 18 -32
11z"/>
<path d="M1210 1510 c-14 -11 -30 -20 -36 -20 -7 0 -14 -6 -17 -14 -3 -8 15
-1 44 16 27 17 49 33 49 34 0 9 -17 2 -40 -16z"/>
<path d="M1347 1509 c-11 -15 -16 -17 -20 -7 -4 9 -6 8 -6 -4 -1 -9 -13 -26
-28 -38 -33 -25 -16 -17 46 22 24 15 48 25 52 22 5 -3 6 2 3 10 -9 22 -30 20
-47 -5z"/>
<path d="M2577 1483 c-4 -3 -2 -12 4 -20 9 -10 8 -13 -1 -13 -17 0 -4 -13 16
-16 10 -2 14 3 10 13 -3 8 -6 21 -6 29 0 15 -12 19 -23 7z"/>
<path d="M1515 1420 c-3 -11 -14 -21 -23 -23 -12 -3 -11 -5 6 -6 13 -1 22 5
22 14 0 11 11 15 42 15 49 0 47 6 -4 13 -30 4 -39 1 -43 -13z"/>
<path d="M1810 1315 c-7 -8 -16 -13 -20 -10 -5 3 -11 1 -15 -4 -3 -6 -15 -7
-29 -1 -16 6 -27 5 -35 -3 -9 -9 -16 -9 -30 0 -14 9 -21 9 -30 0 -8 -8 -11 -8
-11 0 0 8 -9 9 -31 3 -16 -5 -57 -10 -90 -12 -32 -2 -59 -7 -59 -12 0 -4 -7
-6 -15 -2 -8 3 -15 2 -15 -2 0 -4 -8 -8 -17 -9 -59 -4 -107 -24 -182 -78 -25
-18 -56 -36 -69 -39 -12 -4 -29 -20 -37 -35 -13 -26 -20 -28 -70 -30 -31 0
-65 -6 -77 -12 -15 -8 -19 -8 -14 0 4 6 0 11 -9 11 -9 0 -14 -4 -11 -9 3 -5
-9 -8 -27 -6 -17 1 -46 -4 -63 -10 -17 -7 -52 -12 -77 -11 -31 1 -48 -3 -52
-12 -3 -8 -10 -10 -17 -5 -20 12 -50 14 -43 3 3 -5 0 -7 -8 -4 -8 3 -20 -2
-27 -11 -7 -8 -17 -15 -23 -15 -11 0 -57 -47 -57 -58 0 -4 -10 -16 -21 -26
-17 -14 -19 -20 -8 -27 7 -4 10 -11 6 -15 -4 -4 2 -14 14 -22 22 -15 24 -14
65 46 9 12 26 23 38 23 17 1 18 2 3 6 -14 4 -16 8 -6 19 6 8 9 14 6 14 -3 0
-21 -22 -40 -48 -34 -48 -67 -64 -67 -32 0 17 72 91 105 108 11 6 52 15 90 21
39 6 122 20 185 32 75 14 160 21 245 22 91 1 105 2 47 4 -72 3 -82 6 -72 18
10 12 10 15 0 15 -10 0 -10 3 0 15 7 8 19 15 27 15 13 0 13 -2 2 -16 -12 -15
86 49 119 76 7 6 36 22 65 35 77 35 226 49 447 42 220 -7 328 -27 459 -85 50
-22 91 -36 91 -31 0 6 8 5 19 -1 26 -13 40 -13 21 1 -12 8 -9 9 12 5 34 -8 58
2 58 22 0 12 -3 13 -12 4 -14 -14 -77 -16 -98 -2 -9 6 -17 5 -22 -3 -5 -8 -16
-5 -38 11 -17 13 -35 20 -40 17 -6 -3 -10 -1 -10 5 0 6 -5 8 -11 5 -6 -4 -13
2 -16 14 -4 17 -9 19 -24 10 -13 -7 -19 -6 -19 1 0 6 -4 9 -9 6 -5 -4 -11 -2
-13 3 -3 8 -67 23 -105 24 -7 0 -13 4 -13 8 0 11 -42 7 -59 -5 -10 -7 -13 -7
-9 -1 4 6 3 17 -2 25 -7 12 -11 12 -26 -1 -9 -8 -19 -13 -21 -11 -1 1 -5 1 -8
1 -19 -5 -32 -4 -41 3 -6 5 -24 4 -39 -2 l-28 -11 17 26 c18 27 16 34 -4 10z"/>
<path d="M1498 1213 c18 -2 45 -2 60 0 15 2 0 4 -33 4 -33 0 -45 -2 -27 -4z"/>
<path d="M2149 1173 c-20 -10 -39 -10 -84 -2 -32 6 -68 8 -82 5 -13 -4 -44
-33 -70 -66 -27 -35 -54 -60 -65 -60 -21 0 -23 9 -5 35 29 44 58 95 54 95 -3
0 -23 -30 -46 -66 -23 -36 -45 -63 -50 -60 -5 3 -20 -3 -33 -13 -13 -11 -37
-21 -53 -24 l-30 -4 31 -2 c18 0 37 6 45 15 10 13 27 15 86 11 40 -3 73 -2 73
3 0 5 -6 10 -12 12 -10 4 -9 11 2 34 l15 29 3 -54 c5 -79 46 -107 78 -52 13
23 24 29 53 29 58 0 63 1 56 13 -5 7 29 9 109 7 120 -3 128 0 101 36 -8 10
-12 23 -8 29 3 6 1 7 -5 3 -6 -3 -13 -2 -17 4 -8 13 -60 40 -94 49 -15 4 -37
2 -52 -6z m76 -31 c31 -5 65 -31 65 -48 0 -13 -7 -15 -35 -10 -22 5 -35 3 -35
-4 0 -7 -6 -8 -17 -2 -10 5 -32 7 -50 5 -27 -3 -32 0 -35 19 -2 12 -14 28 -28
35 -23 12 -21 13 29 11 39 -1 56 2 59 12 4 11 7 11 16 -1 6 -8 20 -15 31 -17z
m-154 -24 c22 -6 39 -14 39 -18 0 -4 -23 -11 -52 -14 -59 -8 -97 -25 -80 -35
8 -5 7 -13 -4 -29 -8 -12 -20 -20 -25 -17 -14 9 -11 25 6 25 8 0 15 5 15 11 0
5 -4 7 -10 4 -14 -9 -13 1 5 35 14 28 40 49 59 50 5 0 26 -5 47 -12z"/>
<path d="M1460 1070 c36 -4 97 -8 135 -7 l70 0 -60 7 c-33 4 -94 8 -135 7
l-75 0 65 -7z"/>
<path d="M1690 1060 c20 -13 60 -13 60 0 0 6 -17 10 -37 10 -28 0 -34 -3 -23
-10z"/>
<path d="M1295 1040 c-17 -7 -15 -9 10 -8 17 0 44 4 60 8 29 7 28 8 -10 8 -22
0 -49 -3 -60 -8z"/>
<path d="M1438 995 c-36 -5 -75 -17 -85 -26 -10 -9 -33 -21 -50 -27 -18 -6
-38 -16 -45 -22 -7 -6 -29 -21 -48 -33 -41 -27 -50 -52 -19 -54 17 -2 19 1 10
10 -6 6 -11 14 -11 19 0 21 227 104 312 114 33 4 54 10 48 14 -9 6 -9 9 1 12
22 8 -40 4 -113 -7z"/>
<path d="M1734 980 c-35 -14 -37 -29 -5 -28 17 1 41 -6 55 -15 16 -11 27 -13
31 -7 4 6 10 8 15 5 13 -8 41 6 33 18 -4 6 0 8 10 4 11 -4 17 -1 17 8 0 22
-36 18 -58 -5 -17 -19 -20 -19 -32 -5 -21 25 -43 33 -66 25z"/>
<path d="M1525 960 c-11 -4 -31 -6 -45 -4 -21 4 -22 3 -5 -4 18 -8 17 -10 -12
-25 -18 -10 -54 -18 -80 -18 l-48 -2 38 -6 39 -6 -29 -27 c-22 -21 -40 -28
-83 -31 l-55 -3 57 -2 c53 -2 60 1 85 28 14 17 32 30 39 30 12 0 35 12 97 49
48 30 50 41 2 21z"/>
<path d="M1606 919 c-15 -12 -35 -38 -44 -58 -15 -31 -21 -36 -46 -33 -19 3
-26 0 -21 -8 4 -6 13 -9 21 -6 8 3 14 0 14 -6 0 -6 20 8 45 31 24 22 53 41 64
41 10 0 24 7 31 15 10 12 10 15 -3 15 -9 0 -28 -5 -44 -10 -26 -9 -27 -9 -9 5
12 9 41 15 70 15 37 0 47 3 36 10 -26 17 -86 11 -114 -11z"/>
<path d="M728 923 c28 -2 76 -2 105 0 28 2 5 3 -53 3 -58 0 -81 -1 -52 -3z"/>
<path d="M923 913 c20 -2 54 -2 75 0 20 2 3 4 -38 4 -41 0 -58 -2 -37 -4z"/>
<path d="M1051 906 c2 -2 33 -6 69 -9 38 -3 57 -1 45 3 -19 8 -123 14 -114 6z"/>
<path d="M1250 880 c-11 -7 -12 -12 -3 -21 15 -15 43 -5 43 16 0 17 -18 19
-40 5z"/>
<path d="M613 858 c-24 -27 -43 -62 -43 -80 0 -9 15 -13 48 -13 26 -1 141 -6
257 -13 198 -11 440 -10 453 2 3 3 3 9 -1 12 -7 8 -192 5 -224 -3 -16 -3 -23
-1 -23 9 0 7 -11 30 -25 50 -28 41 -32 42 -285 53 -132 6 -136 5 -157 -17z
m227 -12 c0 -19 -27 -28 -33 -11 -7 15 1 25 20 25 7 0 13 -6 13 -14z m-110
-36 c63 -5 162 -10 220 -11 93 -2 119 -8 120 -29 0 -6 -312 5 -417 15 -56 5
-71 10 -66 21 6 16 -3 16 143 4z"/>
<path d="M1425 851 c-30 -5 -45 -14 -62 -40 -27 -40 -29 -51 -8 -51 8 0 15 7
15 16 0 32 50 60 130 73 l55 9 -45 -1 c-25 0 -63 -3 -85 -6z"/>
<path d="M1249 720 c-59 -7 -79 -15 -79 -31 0 -6 7 -6 18 -1 9 4 46 9 82 11
36 1 94 9 130 16 l65 13 -80 -1 c-44 0 -105 -4 -136 -7z"/>
<path d="M808 693 c17 -2 47 -2 65 0 17 2 3 4 -33 4 -36 0 -50 -2 -32 -4z"/>
<path d="M1071 685 c-2 -5 -4 -23 -4 -40 -2 -22 -7 -30 -19 -29 -25 2 -22 -23
3 -31 28 -9 31 -5 26 56 -2 30 -5 50 -6 44z"/>
<path d="M1349 675 c-3 -2 -42 -5 -87 -6 -62 -1 -82 -5 -82 -15 0 -16 12 -17
143 -4 113 11 163 29 81 30 -28 0 -53 -2 -55 -5z"/>
<path d="M1429 636 c-3 -3 -60 -6 -129 -7 -116 -1 -125 -3 -142 -24 -10 -13
-18 -29 -18 -37 0 -11 2 -11 9 1 11 17 79 30 164 31 60 0 137 20 137 34 0 7
-15 8 -21 2z"/>
<path d="M2158 575 c-6 -7 -60 -13 -127 -14 -30 0 -51 -4 -47 -8 11 -11 122
-4 186 12 43 10 48 13 24 14 -17 1 -33 -1 -36 -4z"/>
<path d="M1020 492 c0 -4 30 -9 68 -10 47 -2 63 1 52 8 -18 11 -120 14 -120 2z"/>
<path d="M1820 490 c-20 -5 1 -6 50 -3 47 3 87 7 89 9 8 7 -103 2 -139 -6z"/>
<path d="M660 471 c0 -10 -7 -24 -15 -31 -16 -14 -21 -35 -5 -25 5 3 18 18 29
34 18 24 19 30 6 35 -10 3 -15 -1 -15 -13z"/>
<path d="M694 437 c-11 -12 -26 -31 -34 -41 -15 -19 -14 -19 13 -2 15 10 27
22 27 26 0 5 10 10 22 12 18 3 19 5 6 15 -12 11 -18 9 -34 -10z"/>
<path d="M2305 453 c11 -3 32 -17 48 -31 15 -14 27 -21 27 -16 0 20 -46 54
-71 53 -20 -1 -21 -2 -4 -6z"/>
<path d="M2283 412 c-19 -16 -20 -20 -7 -45 19 -35 22 -34 16 3 -3 21 0 32 12
36 17 6 22 24 8 24 -5 0 -18 -8 -29 -18z"/>
<path d="M716 388 c-23 -33 -19 -45 4 -15 11 14 30 28 43 30 19 4 18 4 -5 6
-17 1 -32 -7 -42 -21z"/>
<path d="M2182 364 c11 -23 13 -24 19 -7 12 29 10 33 -11 33 -17 0 -18 -3 -8
-26z"/>
<path d="M2124 355 c-4 -8 -12 -15 -20 -15 -8 0 -14 -4 -14 -9 0 -4 -12 -6
-26 -3 -19 3 -25 1 -20 -7 4 -6 18 -9 32 -7 13 3 24 0 24 -5 0 -5 -3 -9 -7 -9
-25 -1 -34 -17 -22 -43 17 -37 32 -34 24 4 -7 29 -6 30 14 20 12 -7 21 -17 21
-23 0 -6 3 -9 6 -6 3 4 -2 21 -11 38 -12 22 -13 36 -6 43 7 7 15 -1 27 -27 19
-39 26 -43 42 -23 9 10 5 23 -14 50 -27 40 -41 46 -50 22z"/>
<path d="M735 350 c-9 -15 4 -30 26 -30 10 0 19 -5 19 -11 0 -6 7 -8 16 -5 8
3 12 2 9 -4 -3 -6 -2 -10 4 -10 9 0 41 50 41 65 0 8 -30 6 -30 -2 0 -5 -4 -14
-9 -22 -7 -11 -14 -10 -39 8 -19 13 -33 17 -37 11z"/>
<path d="M903 330 c14 -11 32 -20 40 -20 8 0 20 -7 27 -15 11 -13 10 -22 -4
-52 -14 -30 -14 -35 -2 -30 8 3 17 1 20 -6 2 -7 5 -3 5 9 1 25 31 54 56 54 10
0 27 -7 37 -17 10 -9 18 -12 18 -6 0 16 -45 35 -76 31 -21 -2 -34 3 -47 20
-10 12 -24 22 -32 22 -7 0 -18 7 -25 15 -7 8 -19 15 -28 15 -10 0 -6 -7 11
-20z"/>
<path d="M852 300 c-10 -17 -10 -23 1 -35 12 -12 16 -10 26 11 6 14 11 29 11
34 0 18 -25 10 -38 -10z"/>
<path d="M2007 298 c-4 -15 1 -30 13 -43 11 -12 20 -27 20 -33 0 -7 5 -12 10
-12 13 0 13 3 -2 35 -6 14 -17 25 -25 25 -9 0 -11 8 -7 25 3 14 4 25 1 25 -2
0 -7 -10 -10 -22z"/>
<path d="M902 260 c-10 -27 -9 -29 9 -27 37 6 54 57 20 57 -12 0 -23 -11 -29
-30z"/>
<path d="M1975 252 c-36 -7 -41 -22 -7 -22 24 0 35 -6 42 -22 5 -13 9 -18 9
-12 2 27 -24 59 -44 56z"/>
<path d="M1027 244 c-12 -13 -7 -52 7 -57 18 -7 39 17 34 40 -3 18 -29 29 -41
17z"/>
<path d="M1910 239 c0 -6 -8 -9 -18 -7 -17 5 -17 3 -3 -27 9 -18 21 -30 26
-26 6 4 24 8 40 10 53 5 49 19 -6 22 -29 2 -35 6 -31 21 2 10 2 18 -2 18 -3 0
-6 -5 -6 -11z"/>
<path d="M1791 209 c-11 -18 -22 -26 -25 -20 -4 6 -17 16 -29 21 -20 10 -20
10 -5 -3 10 -8 22 -32 27 -53 6 -27 9 -31 10 -15 1 23 2 24 21 6 11 -10 22
-16 25 -13 3 3 -1 11 -10 18 -19 16 -19 40 1 68 8 12 13 22 9 22 -3 0 -14 -14
-24 -31z"/>
<path d="M1225 208 c-2 -7 -5 -25 -8 -40 -4 -25 -1 -28 24 -28 35 0 55 30 39
60 -12 22 -48 27 -55 8z"/>
<path d="M1310 200 c8 -15 7 -27 -4 -49 -9 -16 -19 -31 -23 -33 -5 -3 -1 -3 7
0 8 3 23 4 33 4 12 -1 17 7 17 28 0 16 3 36 7 46 4 11 3 15 -5 10 -6 -3 -13
-2 -17 4 -12 19 -26 11 -15 -10z"/>
<path d="M1371 189 c0 -15 -4 -40 -7 -57 -5 -25 -3 -30 12 -29 11 1 21 11 24
22 4 13 16 21 33 23 35 4 35 19 -2 24 -16 2 -28 0 -27 -6 1 -6 -3 -12 -9 -14
-5 -1 -13 12 -16 30 -6 29 -7 30 -8 7z"/>
<path d="M1820 187 c0 -26 27 -44 43 -28 15 15 3 46 -21 49 -18 3 -22 -1 -22
-21z"/>
<path d="M1525 184 c-11 -11 -19 -13 -28 -6 -9 8 -11 0 -9 -33 3 -33 7 -42 18
-38 8 3 25 -3 37 -13 l22 -19 -22 26 c-28 31 -29 53 -3 79 11 11 16 20 11 20
-5 0 -17 -7 -26 -16z"/>
<path d="M1585 190 c3 -5 12 -7 20 -3 12 4 15 -6 16 -48 1 -53 1 -53 13 -25
13 27 14 28 25 10 11 -17 12 -17 7 6 -3 14 -6 33 -6 42 0 11 -5 15 -14 12 -8
-3 -17 -1 -21 5 -3 6 -15 11 -26 11 -11 0 -18 -4 -14 -10z"/>
<path d="M1690 155 c0 -26 15 -34 23 -12 3 7 6 5 6 -5 1 -10 6 -18 12 -18 6 0
8 7 5 16 -3 9 -6 22 -6 30 0 8 -9 14 -20 14 -15 0 -20 -7 -20 -25z"/>
<path d="M1557 164 c-4 -4 -7 -16 -7 -26 0 -14 6 -19 23 -16 14 2 22 10 22 23
0 20 -25 32 -38 19z"/>
</g>
</svg>
